<svg width="59" height="59" viewBox="0 0 59 59" fill="none" xmlns="http://www.w3.org/2000/svg">
<path d="M29.6667 4.88916C26.4566 4.88916 23.2779 5.52143 20.3122 6.74988C17.3465 7.97833 14.6517 9.7789 12.3818 12.0488C7.79762 16.633 5.22223 22.8505 5.22223 29.3336C5.22223 40.138 12.2378 49.3047 21.9422 52.5558C23.1645 52.7514 23.5556 51.9936 23.5556 51.3336V47.2025C16.7845 48.6692 15.3422 43.9269 15.3422 43.9269C14.2178 41.0914 12.6289 40.3336 12.6289 40.3336C10.4045 38.818 12.8 38.8669 12.8 38.8669C15.2445 39.038 16.54 41.3847 16.54 41.3847C18.6667 45.1003 22.26 44.0003 23.6533 43.4136C23.8733 41.8247 24.5089 40.7492 25.1933 40.138C19.7667 39.5269 14.0711 37.4247 14.0711 28.1114C14.0711 25.398 15 23.2225 16.5889 21.4869C16.3445 20.8758 15.4889 18.3336 16.8333 15.0336C16.8333 15.0336 18.8867 14.3736 23.5556 17.5269C25.4867 16.9892 27.5889 16.7203 29.6667 16.7203C31.7445 16.7203 33.8467 16.9892 35.7778 17.5269C40.4467 14.3736 42.5 15.0336 42.5 15.0336C43.8445 18.3336 42.9889 20.8758 42.7445 21.4869C44.3333 23.2225 45.2622 25.398 45.2622 28.1114C45.2622 37.4492 39.5422 39.5025 34.0911 40.1136C34.9711 40.8714 35.7778 42.3625 35.7778 44.6358V51.3336C35.7778 51.9936 36.1689 52.7758 37.4156 52.5558C47.12 49.2803 54.1111 40.138 54.1111 29.3336C54.1111 26.1235 53.4788 22.9449 52.2504 19.9791C51.0219 17.0134 49.2214 14.3186 46.9515 12.0488C44.6816 9.7789 41.9869 7.97833 39.0212 6.74988C36.0554 5.52143 32.8768 4.88916 29.6667 4.88916Z" fill="#9CA3AF"/>
</svg>
