<svg width="59" height="59" viewBox="0 0 59 59" fill="none" xmlns="http://www.w3.org/2000/svg">
<path d="M41.5556 20.7782C43.5806 20.7782 45.2222 19.1365 45.2222 17.1115C45.2222 15.0864 43.5806 13.4448 41.5556 13.4448C39.5305 13.4448 37.8889 15.0864 37.8889 17.1115C37.8889 19.1365 39.5305 20.7782 41.5556 20.7782Z" fill="#9CA3AF"/>
<path d="M39.1111 7.3335C45.8578 7.3335 51.3333 12.8091 51.3333 19.5557V39.1113C51.3333 45.8579 45.8578 51.3335 39.1111 51.3335H19.5556C12.8089 51.3335 7.33334 45.8579 7.33334 39.1113V19.5557C7.33334 12.8091 12.8089 7.3335 19.5556 7.3335H29.3333H39.1111Z" stroke="#9CA3AF" stroke-width="4.88889" stroke-linecap="round" stroke-linejoin="round"/>
<path d="M29.3333 19.5557C34.7355 19.5557 39.1111 23.9312 39.1111 29.3334C39.1111 34.7357 34.7355 39.1112 29.3333 39.1112C23.9311 39.1112 19.5555 34.7357 19.5555 29.3334C19.5555 23.9312 23.9311 19.5557 29.3333 19.5557Z" stroke="#9CA3AF" stroke-width="4.88889" stroke-linecap="round" stroke-linejoin="round"/>
</svg>
