<svg width="18" height="21" viewBox="0 0 18 21" fill="none" xmlns="http://www.w3.org/2000/svg">
<g clip-path="url(#clip0_9_645)">
<g clip-path="url(#clip1_9_645)">
<path d="M16.5 1.75H1.49609C0.808594 1.75 0.25 2.31641 0.25 3.01172V17.9883C0.25 18.6836 0.808594 19.25 1.49609 19.25H16.5C17.1875 19.25 17.75 18.6836 17.75 17.9883V3.01172C17.75 2.31641 17.1875 1.75 16.5 1.75ZM5.53906 16.75H2.94531V8.39844H5.54297V16.75H5.53906ZM4.24219 7.25781C3.41016 7.25781 2.73828 6.58203 2.73828 5.75391C2.73828 4.92578 3.41016 4.25 4.24219 4.25C5.07031 4.25 5.74609 4.92578 5.74609 5.75391C5.74609 6.58594 5.07422 7.25781 4.24219 7.25781ZM15.2617 16.75H12.668V12.6875C12.668 11.7188 12.6484 10.4727 11.3203 10.4727C9.96875 10.4727 9.76172 11.5273 9.76172 12.6172V16.75H7.16797V8.39844H9.65625V9.53906H9.69141C10.0391 8.88281 10.8867 8.19141 12.1484 8.19141C14.7734 8.19141 15.2617 9.92188 15.2617 12.1719V16.75Z" fill="#2084FF"/>
</g>
</g>
<defs>
<clipPath id="clip0_9_645">
<rect width="17.5" height="20" fill="white" transform="translate(0.25 0.5)"/>
</clipPath>
<clipPath id="clip1_9_645">
<path d="M0.25 0.5H17.75V20.5H0.25V0.5Z" fill="white"/>
</clipPath>
</defs>
</svg>
