<svg width="21" height="21" viewBox="0 0 21 21" fill="none" xmlns="http://www.w3.org/2000/svg">
<g clip-path="url(#clip0_9_648)">
<g clip-path="url(#clip1_9_648)">
<path d="M14.5 10.5C14.5 11.3672 14.4531 12.2031 14.3711 13H7.12891C7.04297 12.2031 7 11.3672 7 10.5C7 9.63281 7.04688 8.79688 7.12891 8H14.3711C14.457 8.79688 14.5 9.63281 14.5 10.5ZM15.625 8H20.4336C20.6406 8.80078 20.75 9.63672 20.75 10.5C20.75 11.3633 20.6406 12.1992 20.4336 13H15.625C15.707 12.1953 15.75 11.3594 15.75 10.5C15.75 9.64062 15.707 8.80469 15.625 8ZM20.0234 6.75H15.4648C15.0742 4.25391 14.3008 2.16406 13.3047 0.828125C16.3633 1.63672 18.8516 3.85547 20.0195 6.75H20.0234ZM14.1992 6.75H7.30078C7.53906 5.32812 7.90625 4.07031 8.35547 3.05078C8.76562 2.12891 9.22266 1.46094 9.66406 1.03906C10.1016 0.625 10.4648 0.5 10.75 0.5C11.0352 0.5 11.3984 0.625 11.8359 1.03906C12.2773 1.46094 12.7344 2.12891 13.1445 3.05078C13.5977 4.06641 13.9609 5.32422 14.1992 6.75ZM6.03516 6.75H1.47656C2.64844 3.85547 5.13281 1.63672 8.19531 0.828125C7.19922 2.16406 6.42578 4.25391 6.03516 6.75ZM1.06641 8H5.875C5.79297 8.80469 5.75 9.64062 5.75 10.5C5.75 11.3594 5.79297 12.1953 5.875 13H1.06641C0.859375 12.1992 0.75 11.3633 0.75 10.5C0.75 9.63672 0.859375 8.80078 1.06641 8ZM8.35547 17.9453C7.90234 16.9297 7.53906 15.6719 7.30078 14.25H14.1992C13.9609 15.6719 13.5938 16.9297 13.1445 17.9453C12.7344 18.8672 12.2773 19.5352 11.8359 19.957C11.3984 20.375 11.0352 20.5 10.75 20.5C10.4648 20.5 10.1016 20.375 9.66406 19.9609C9.22266 19.5391 8.76562 18.8711 8.35547 17.9492V17.9453ZM6.03516 14.25C6.42578 16.7461 7.19922 18.8359 8.19531 20.1719C5.13281 19.3633 2.64844 17.1445 1.47656 14.25H6.03516ZM20.0234 14.25C18.8516 17.1445 16.3672 19.3633 13.3086 20.1719C14.3047 18.8359 15.0742 16.7461 15.4688 14.25H20.0234Z" fill="#CD2E2C"/>
</g>
</g>
<defs>
<clipPath id="clip0_9_648">
<rect width="20" height="20" fill="white" transform="translate(0.75 0.5)"/>
</clipPath>
<clipPath id="clip1_9_648">
<path d="M0.75 0.5H20.75V20.5H0.75V0.5Z" fill="white"/>
</clipPath>
</defs>
</svg>
